<mxfile host="Electron" agent="Mozilla/5.0 (Windows NT 10.0; Win64; x64) AppleWebKit/537.36 (KHTML, like Gecko) draw.io/28.1.2 Chrome/138.0.7204.243 Electron/37.4.0 Safari/537.36" version="28.1.2">
  <diagram name="Page-1" id="OF9greeKcQ6onKDdQP93">
    <mxGraphModel dx="1303" dy="783" grid="1" gridSize="10" guides="1" tooltips="1" connect="1" arrows="1" fold="1" page="1" pageScale="1" pageWidth="827" pageHeight="1169" math="0" shadow="0">
      <root>
        <mxCell id="0" />
        <mxCell id="1" parent="0" />
        <mxCell id="MZCLySDW0nryiur-8tVe-30" style="edgeStyle=orthogonalEdgeStyle;rounded=0;orthogonalLoop=1;jettySize=auto;html=1;exitX=0.439;exitY=0.9;exitDx=0;exitDy=0;entryX=0.154;entryY=0.75;entryDx=0;entryDy=0;entryPerimeter=0;exitPerimeter=0;" parent="1" source="MZCLySDW0nryiur-8tVe-11" edge="1">
          <mxGeometry relative="1" as="geometry">
            <Array as="points">
              <mxPoint x="348" y="850" />
              <mxPoint x="50" y="850" />
              <mxPoint x="50" y="480" />
              <mxPoint x="200" y="480" />
            </Array>
            <mxPoint x="200.07999999999993" y="430" as="targetPoint" />
          </mxGeometry>
        </mxCell>
        <mxCell id="I6rHF4V24H5XvrQ4KlLN-1" value="&lt;div style=&quot;&quot;&gt;&lt;p class=&quot;MsoNormal&quot;&gt;&lt;span style=&quot;font-size:16.0pt;font-family:&amp;quot;Times New Roman&amp;quot;,serif&quot;&gt;Item (&lt;u&gt;ItemID&lt;/u&gt;, Name, Description, Quantity, Price, CategoryID)&lt;/span&gt;&lt;/p&gt;&lt;/div&gt;" style="text;html=1;align=left;verticalAlign=middle;whiteSpace=wrap;rounded=0;fontFamily=Times New Roman;" vertex="1" parent="1">
          <mxGeometry x="120" y="240" width="600" height="40" as="geometry" />
        </mxCell>
        <mxCell id="I6rHF4V24H5XvrQ4KlLN-9" value="" style="group" vertex="1" connectable="0" parent="1">
          <mxGeometry x="120" y="160" width="600" height="680" as="geometry" />
        </mxCell>
        <mxCell id="MZCLySDW0nryiur-8tVe-3" value="&lt;div style=&quot;&quot;&gt;&lt;p class=&quot;MsoNormal&quot;&gt;&lt;span style=&quot;font-size:16.0pt;font-family:&amp;quot;Times New Roman&amp;quot;,serif&quot;&gt;Category (&lt;u&gt;CategoryID&lt;/u&gt;, CategoryName)&lt;/span&gt;&lt;/p&gt;&lt;/div&gt;" style="text;html=1;align=left;verticalAlign=middle;whiteSpace=wrap;rounded=0;fontFamily=Times New Roman;" parent="I6rHF4V24H5XvrQ4KlLN-9" vertex="1">
          <mxGeometry width="600" height="40" as="geometry" />
        </mxCell>
        <mxCell id="I6rHF4V24H5XvrQ4KlLN-2" value="&lt;div style=&quot;&quot;&gt;&lt;p class=&quot;MsoNormal&quot;&gt;&lt;span style=&quot;font-size:16.0pt;font-family:&amp;quot;Times New Roman&amp;quot;,serif;&lt;br/&gt;mso-fareast-font-family:Arial;mso-ansi-language:EN-US;mso-fareast-language:&lt;br/&gt;EN-US;mso-bidi-language:SI-LK&quot;&gt;Supplier (&lt;u&gt;SupplierID&lt;/u&gt;, Name, ContactNo, Address)&lt;/span&gt;&lt;/p&gt;&lt;/div&gt;" style="text;html=1;align=left;verticalAlign=middle;whiteSpace=wrap;rounded=0;fontFamily=Times New Roman;" vertex="1" parent="I6rHF4V24H5XvrQ4KlLN-9">
          <mxGeometry y="160" width="600" height="40" as="geometry" />
        </mxCell>
        <mxCell id="I6rHF4V24H5XvrQ4KlLN-3" value="&lt;div style=&quot;&quot;&gt;&lt;p class=&quot;MsoNormal&quot;&gt;&lt;span style=&quot;font-size:16.0pt;font-family:&amp;quot;Times New Roman&amp;quot;,serif;&lt;br/&gt;mso-fareast-font-family:Arial;mso-ansi-language:EN-US;mso-fareast-language:&lt;br/&gt;EN-US;mso-bidi-language:SI-LK&quot;&gt;Customer (&lt;u&gt;CustomerID&lt;/u&gt;, Name, Email, Phone)&lt;/span&gt;&lt;/p&gt;&lt;/div&gt;" style="text;html=1;align=left;verticalAlign=middle;whiteSpace=wrap;rounded=0;fontFamily=Times New Roman;" vertex="1" parent="I6rHF4V24H5XvrQ4KlLN-9">
          <mxGeometry y="240" width="600" height="40" as="geometry" />
        </mxCell>
        <mxCell id="I6rHF4V24H5XvrQ4KlLN-4" value="&lt;div style=&quot;&quot;&gt;&lt;p class=&quot;MsoNormal&quot;&gt;&lt;span style=&quot;font-size:16.0pt;font-family:&amp;quot;Times New Roman&amp;quot;,serif&quot;&gt;Employee (&lt;u&gt;EmpID&lt;/u&gt;, Name, Role, Salary)&lt;/span&gt;&lt;/p&gt;&lt;/div&gt;" style="text;html=1;align=left;verticalAlign=middle;whiteSpace=wrap;rounded=0;fontFamily=Times New Roman;" vertex="1" parent="I6rHF4V24H5XvrQ4KlLN-9">
          <mxGeometry y="320" width="600" height="40" as="geometry" />
        </mxCell>
        <mxCell id="I6rHF4V24H5XvrQ4KlLN-16" style="edgeStyle=orthogonalEdgeStyle;rounded=0;orthogonalLoop=1;jettySize=auto;html=1;exitX=0.5;exitY=0;exitDx=0;exitDy=0;entryX=0.25;entryY=0;entryDx=0;entryDy=0;" edge="1" parent="I6rHF4V24H5XvrQ4KlLN-9" source="I6rHF4V24H5XvrQ4KlLN-5" target="I6rHF4V24H5XvrQ4KlLN-3">
          <mxGeometry relative="1" as="geometry">
            <Array as="points">
              <mxPoint x="300" y="380" />
              <mxPoint x="480" y="380" />
              <mxPoint x="480" y="220" />
              <mxPoint x="150" y="220" />
            </Array>
          </mxGeometry>
        </mxCell>
        <mxCell id="I6rHF4V24H5XvrQ4KlLN-5" value="&lt;div style=&quot;&quot;&gt;&lt;p class=&quot;MsoNormal&quot;&gt;&lt;span style=&quot;font-size:16.0pt;font-family:&amp;quot;Times New Roman&amp;quot;,serif&quot;&gt;Orders (&lt;u&gt;OrderID&lt;/u&gt;, OrderDate, CustomerID)&lt;/span&gt;&lt;/p&gt;&lt;/div&gt;" style="text;html=1;align=left;verticalAlign=middle;whiteSpace=wrap;rounded=0;fontFamily=Times New Roman;" vertex="1" parent="I6rHF4V24H5XvrQ4KlLN-9">
          <mxGeometry y="400" width="600" height="40" as="geometry" />
        </mxCell>
        <mxCell id="I6rHF4V24H5XvrQ4KlLN-6" value="&lt;div style=&quot;&quot;&gt;&lt;p class=&quot;MsoNormal&quot;&gt;&lt;span style=&quot;font-size:16.0pt;font-family:&amp;quot;Times New Roman&amp;quot;,serif&quot;&gt;Order_Item (&lt;u&gt;OrderID, ItemID&lt;/u&gt;, Quantity)&lt;/span&gt;&lt;/p&gt;&lt;/div&gt;" style="text;html=1;align=left;verticalAlign=middle;whiteSpace=wrap;rounded=0;fontFamily=Times New Roman;" vertex="1" parent="I6rHF4V24H5XvrQ4KlLN-9">
          <mxGeometry y="480" width="600" height="40" as="geometry" />
        </mxCell>
        <mxCell id="I6rHF4V24H5XvrQ4KlLN-21" style="edgeStyle=orthogonalEdgeStyle;rounded=0;orthogonalLoop=1;jettySize=auto;html=1;exitX=0.693;exitY=0.03;exitDx=0;exitDy=0;entryX=0.25;entryY=0;entryDx=0;entryDy=0;exitPerimeter=0;" edge="1" parent="I6rHF4V24H5XvrQ4KlLN-9" source="I6rHF4V24H5XvrQ4KlLN-7" target="I6rHF4V24H5XvrQ4KlLN-2">
          <mxGeometry relative="1" as="geometry">
            <Array as="points">
              <mxPoint x="416" y="510" />
              <mxPoint x="520" y="510" />
              <mxPoint x="520" y="140" />
              <mxPoint x="150" y="140" />
            </Array>
          </mxGeometry>
        </mxCell>
        <mxCell id="I6rHF4V24H5XvrQ4KlLN-24" style="edgeStyle=orthogonalEdgeStyle;rounded=0;orthogonalLoop=1;jettySize=auto;html=1;exitX=0.85;exitY=0.25;exitDx=0;exitDy=0;entryX=0.216;entryY=0.051;entryDx=0;entryDy=0;exitPerimeter=0;entryPerimeter=0;" edge="1" parent="I6rHF4V24H5XvrQ4KlLN-9" source="I6rHF4V24H5XvrQ4KlLN-7" target="I6rHF4V24H5XvrQ4KlLN-4">
          <mxGeometry relative="1" as="geometry">
            <Array as="points">
              <mxPoint x="510" y="530" />
              <mxPoint x="560" y="530" />
              <mxPoint x="560" y="300" />
              <mxPoint x="130" y="300" />
            </Array>
          </mxGeometry>
        </mxCell>
        <mxCell id="I6rHF4V24H5XvrQ4KlLN-7" value="&lt;div style=&quot;&quot;&gt;&lt;p class=&quot;MsoNormal&quot;&gt;&lt;span style=&quot;font-size:16.0pt;font-family:&amp;quot;Times New Roman&amp;quot;,serif&quot;&gt;Stock_Receive (&lt;u&gt;ReceiveID&lt;/u&gt;, ReceiveDate, SupplierID, EmpID)&lt;/span&gt;&lt;/p&gt;&lt;/div&gt;" style="text;html=1;align=left;verticalAlign=middle;whiteSpace=wrap;rounded=0;fontFamily=Times New Roman;" vertex="1" parent="I6rHF4V24H5XvrQ4KlLN-9">
          <mxGeometry y="560" width="600" height="40" as="geometry" />
        </mxCell>
        <mxCell id="I6rHF4V24H5XvrQ4KlLN-8" value="&lt;div style=&quot;&quot;&gt;&lt;p class=&quot;MsoNormal&quot;&gt;&lt;span style=&quot;font-size:16.0pt;font-family:&amp;quot;Times New Roman&amp;quot;,serif&quot;&gt;Receive_Item (&lt;u&gt;ReceiveID, ItemID&lt;/u&gt;, Quantity)&lt;/span&gt;&lt;/p&gt;&lt;/div&gt;" style="text;html=1;align=left;verticalAlign=middle;whiteSpace=wrap;rounded=0;fontFamily=Times New Roman;" vertex="1" parent="I6rHF4V24H5XvrQ4KlLN-9">
          <mxGeometry y="640" width="600" height="40" as="geometry" />
        </mxCell>
        <mxCell id="I6rHF4V24H5XvrQ4KlLN-17" style="edgeStyle=orthogonalEdgeStyle;rounded=0;orthogonalLoop=1;jettySize=auto;html=1;exitX=0.25;exitY=0;exitDx=0;exitDy=0;entryX=0.186;entryY=0.957;entryDx=0;entryDy=0;entryPerimeter=0;" edge="1" parent="I6rHF4V24H5XvrQ4KlLN-9" source="I6rHF4V24H5XvrQ4KlLN-6" target="I6rHF4V24H5XvrQ4KlLN-5">
          <mxGeometry relative="1" as="geometry" />
        </mxCell>
        <mxCell id="I6rHF4V24H5XvrQ4KlLN-22" style="edgeStyle=orthogonalEdgeStyle;rounded=0;orthogonalLoop=1;jettySize=auto;html=1;exitX=0.25;exitY=0;exitDx=0;exitDy=0;entryX=0.308;entryY=0.978;entryDx=0;entryDy=0;entryPerimeter=0;" edge="1" parent="I6rHF4V24H5XvrQ4KlLN-9" source="I6rHF4V24H5XvrQ4KlLN-8" target="I6rHF4V24H5XvrQ4KlLN-7">
          <mxGeometry relative="1" as="geometry" />
        </mxCell>
        <mxCell id="I6rHF4V24H5XvrQ4KlLN-23" style="edgeStyle=orthogonalEdgeStyle;rounded=0;orthogonalLoop=1;jettySize=auto;html=1;exitX=0.437;exitY=0.957;exitDx=0;exitDy=0;entryX=0.4;entryY=1;entryDx=0;entryDy=0;entryPerimeter=0;exitPerimeter=0;" edge="1" parent="I6rHF4V24H5XvrQ4KlLN-9" source="I6rHF4V24H5XvrQ4KlLN-8" target="I6rHF4V24H5XvrQ4KlLN-6">
          <mxGeometry relative="1" as="geometry">
            <Array as="points">
              <mxPoint x="262" y="700" />
              <mxPoint x="-40" y="700" />
              <mxPoint x="-40" y="560" />
              <mxPoint x="240" y="560" />
            </Array>
          </mxGeometry>
        </mxCell>
        <mxCell id="I6rHF4V24H5XvrQ4KlLN-13" style="edgeStyle=orthogonalEdgeStyle;rounded=0;orthogonalLoop=1;jettySize=auto;html=1;exitX=0.75;exitY=0;exitDx=0;exitDy=0;entryX=0.25;entryY=0.75;entryDx=0;entryDy=0;entryPerimeter=0;" edge="1" parent="1" source="I6rHF4V24H5XvrQ4KlLN-1" target="MZCLySDW0nryiur-8tVe-3">
          <mxGeometry relative="1" as="geometry" />
        </mxCell>
        <mxCell id="I6rHF4V24H5XvrQ4KlLN-19" style="edgeStyle=orthogonalEdgeStyle;rounded=0;orthogonalLoop=1;jettySize=auto;html=1;exitX=0.373;exitY=0.914;exitDx=0;exitDy=0;entryX=0.133;entryY=0.75;entryDx=0;entryDy=0;entryPerimeter=0;exitPerimeter=0;" edge="1" parent="1" source="I6rHF4V24H5XvrQ4KlLN-6" target="I6rHF4V24H5XvrQ4KlLN-1">
          <mxGeometry relative="1" as="geometry">
            <Array as="points">
              <mxPoint x="344" y="700" />
              <mxPoint x="80" y="700" />
              <mxPoint x="80" y="310" />
              <mxPoint x="200" y="310" />
            </Array>
          </mxGeometry>
        </mxCell>
        <mxCell id="I6rHF4V24H5XvrQ4KlLN-25" value="" style="rounded=0;whiteSpace=wrap;html=1;fillColor=none;" vertex="1" parent="1">
          <mxGeometry x="40" y="120" width="680" height="800" as="geometry" />
        </mxCell>
      </root>
    </mxGraphModel>
  </diagram>
</mxfile>
